<?xml version="1.0" encoding="iso-8859-1"?>
<!-- Uploaded to: SVG Repo, www.svgrepo.com, Generator: SVG Repo Mixer Tools -->
<svg fill="#000000" height="800px" width="800px" version="1.1" id="Layer_1" xmlns="http://www.w3.org/2000/svg" xmlns:xlink="http://www.w3.org/1999/xlink" 
	 viewBox="0 0 511.998 511.998" xml:space="preserve">
<g>
	<g>
		<path d="M511.854,137.066c-1.42-12.774-12.922-21.983-25.699-20.561l-64.969,7.219l54.902-54.905
			c9.089-9.089,9.089-23.823,0-32.912c-9.087-9.089-23.823-9.087-32.912,0.002l-54.902,54.905l7.214-64.969
			c1.42-12.773-7.787-24.279-20.561-25.699c-12.78-1.415-24.281,7.785-25.699,20.561l-9.582,86.265
			c-16.711-10.721-35.312-16.474-54.132-16.474c-35.446,0-67.179,19.453-87.06,53.37L3.196,476.954
			c-5.356,9.137-3.868,20.737,3.621,28.225c4.484,4.485,10.442,6.817,16.463,6.817c4.034,0,8.096-1.047,11.762-3.196
			l333.087-195.255c29.527-17.309,48.705-44.724,52.616-75.215c2.898-22.604-2.754-45.689-15.731-65.978l86.279-9.587
			C504.069,161.347,513.274,149.841,511.854,137.066z M374.575,232.412c-1.573,12.269-7.984,23.539-18.399,32.675l-57.718-57.724
			c-9.09-9.089-23.826-9.089-32.914-0.002c-9.089,9.087-9.089,23.823-0.002,32.912l50.089,50.093L88.467,423.531l79.411-135.465
			l11.528,11.529c4.544,4.544,10.501,6.817,16.457,6.817c5.955,0,11.912-2.271,16.455-6.816c9.089-9.087,9.089-23.823,0.002-32.912
			l-20.114-20.117l46.404-79.159c11.31-19.296,28.408-30.363,46.905-30.363c14.556,0,28.836,6.588,41.296,19.049l29.091,29.091
			C370.037,199.32,376.67,216.093,374.575,232.412z"/>
	</g>
</g>
</svg>