<?xml version="1.0" encoding="iso-8859-1"?>
<!-- Uploaded to: SVG Repo, www.svgrepo.com, Generator: SVG Repo Mixer Tools -->
<svg height="800px" width="800px" version="1.1" id="Layer_1" xmlns="http://www.w3.org/2000/svg" xmlns:xlink="http://www.w3.org/1999/xlink" 
	 viewBox="0 0 512 512" xml:space="preserve">
<path style="fill:#E17858;" d="M420.737,238.333c3.911-30.491-7.723-61.856-31.924-86.053l-29.098-29.098
	c-24.193-24.195-55.554-35.827-86.043-31.916c-30.485,3.911-57.898,23.086-75.201,52.606L3.192,476.986
	c-5.35,9.13-3.863,20.719,3.618,28.2c7.481,7.481,19.075,8.969,28.202,3.62l333.116-195.271
	C397.65,296.23,416.824,268.818,420.737,238.333z"/>
<path style="fill:#DD512A;" d="M420.737,238.333c3.911-30.491-7.723-61.856-31.924-86.053l-14.545-14.544L6.813,505.191
	c7.481,7.478,19.071,8.963,28.199,3.615l333.116-195.271C397.65,296.23,416.824,268.818,420.737,238.333z"/>
<path style="fill:#E17858;" d="M369.842,278.775L320.368,229.3c-9.079-9.079-23.803-9.079-32.883,0
	c-9.082,9.081-9.082,23.804-0.003,32.885l49.475,49.475c9.082,9.079,23.803,9.079,32.886-0.002
	C378.922,302.578,378.922,287.856,369.842,278.775z"/>
<path style="fill:#DD512A;" d="M212.302,266.706l-32.832-32.834c-9.081-9.079-23.803-9.081-32.883-0.002
	c-9.079,9.081-9.082,23.803,0,32.885l32.829,32.832c0,0.002,0,0,0,0.002c9.079,9.078,23.803,9.079,32.883,0
	C221.38,290.508,221.382,275.785,212.302,266.706z"/>
<path style="fill:#A8DA64;" d="M511.856,137.059c-1.417-12.762-12.916-21.959-25.677-20.539l-65.04,7.227l54.951-54.954
	c9.082-9.081,9.079-23.804,0-32.885c-9.081-9.079-23.803-9.081-32.883,0l-54.951,54.956l7.224-65.038
	c1.417-12.764-7.779-24.26-20.543-25.678c-12.764-1.418-24.257,7.78-25.677,20.543l-14.545,130.919
	c-0.006,0.047-0.003,0.096-0.006,0.143c-0.009,0.068-0.025,0.135-0.031,0.2c-0.036,0.391-0.039,0.787-0.054,1.181
	c-0.019,0.369-0.051,0.736-0.048,1.105c0,0.039-0.003,0.077-0.003,0.115c0.003,0.262,0.033,0.53,0.045,0.794
	c0.022,0.484,0.039,0.966,0.088,1.448c0.006,0.05,0.003,0.099,0.009,0.152c0.003,0.026,0.009,0.051,0.012,0.079
	c0.029,0.265,0.082,0.521,0.121,0.784c0.019,0.109,0.033,0.219,0.051,0.327c0.042,0.254,0.07,0.512,0.118,0.764
	c0.033,0.161,0.079,0.318,0.112,0.477c0.067,0.293,0.136,0.581,0.212,0.873c0.06,0.233,0.109,0.47,0.175,0.699
	c0.045,0.152,0.105,0.298,0.155,0.451c0.042,0.133,0.088,0.264,0.133,0.397c0.076,0.222,0.143,0.445,0.226,0.665
	c0.06,0.167,0.121,0.338,0.188,0.504c0.088,0.226,0.194,0.445,0.288,0.667c0.191,0.436,0.384,0.863,0.597,1.282
	c0.121,0.237,0.251,0.468,0.378,0.701c0.2,0.358,0.403,0.715,0.617,1.06c0.06,0.095,0.118,0.191,0.178,0.285
	c0.109,0.169,0.225,0.335,0.336,0.501c0.279,0.408,0.569,0.8,0.87,1.186c0.085,0.105,0.158,0.22,0.242,0.324
	c0.057,0.076,0.124,0.149,0.181,0.222c0.467,0.56,0.95,1.105,1.465,1.62c0.003,0.003,0.006,0.006,0.009,0.009l0,0l0,0
	c0.006,0.005,0.009,0.009,0.012,0.012c0.512,0.515,1.057,0.997,1.62,1.462c0.073,0.06,0.146,0.124,0.219,0.183
	c0.105,0.087,0.219,0.16,0.324,0.24c0.388,0.301,0.778,0.594,1.187,0.87c0.166,0.115,0.333,0.229,0.502,0.339
	c0.095,0.06,0.188,0.118,0.285,0.175c0.346,0.219,0.699,0.42,1.057,0.617c0.233,0.13,0.467,0.259,0.702,0.378
	c0.419,0.214,0.848,0.409,1.28,0.597c0.225,0.096,0.442,0.202,0.67,0.291c0.166,0.067,0.336,0.127,0.505,0.189
	c0.219,0.082,0.439,0.149,0.66,0.223c0.133,0.045,0.267,0.095,0.397,0.136c0.155,0.048,0.299,0.107,0.451,0.152
	c0.233,0.068,0.473,0.116,0.705,0.177c0.288,0.074,0.575,0.147,0.867,0.212c0.161,0.034,0.318,0.081,0.479,0.11
	c0.254,0.051,0.508,0.079,0.766,0.119c0.109,0.019,0.219,0.034,0.33,0.051c0.26,0.037,0.518,0.091,0.778,0.119
	c0.028,0.003,0.054,0.009,0.082,0.014c0.051,0.006,0.099,0.005,0.152,0.009c0.479,0.05,0.96,0.068,1.442,0.087
	c0.267,0.012,0.536,0.045,0.803,0.046c0.036,0.002,0.073-0.002,0.109-0.002c0.363,0,0.724-0.031,1.087-0.047
	c0.4-0.017,0.806-0.02,1.198-0.059c0.06-0.003,0.118-0.019,0.178-0.025c0.009,0,0.019-0.003,0.031-0.003
	c0.045-0.006,0.091-0.003,0.136-0.008l130.921-14.548C504.077,161.319,513.273,149.823,511.856,137.059z"/>
<path style="fill:#78B86D;" d="M511.856,137.059c-1.417-12.762-12.916-21.959-25.677-20.539l-65.04,7.227l54.951-54.954
	c9.079-9.079,9.079-23.801,0.003-32.882L341.386,170.62c0.003,0.003,0.006,0.006,0.009,0.009c0.512,0.515,1.057,0.997,1.62,1.462
	c0.073,0.06,0.146,0.124,0.219,0.183c0.105,0.087,0.219,0.16,0.324,0.24c0.388,0.301,0.778,0.594,1.187,0.87
	c0.166,0.115,0.333,0.229,0.502,0.339c0.095,0.06,0.188,0.118,0.285,0.175c0.346,0.219,0.699,0.42,1.057,0.617
	c0.233,0.13,0.467,0.259,0.702,0.378c0.419,0.214,0.848,0.409,1.28,0.597c0.225,0.096,0.442,0.202,0.67,0.291
	c0.166,0.067,0.336,0.127,0.505,0.189c0.219,0.082,0.439,0.149,0.66,0.223c0.133,0.045,0.267,0.095,0.397,0.136
	c0.155,0.048,0.299,0.107,0.451,0.152c0.233,0.068,0.473,0.116,0.705,0.177c0.288,0.074,0.575,0.147,0.867,0.212
	c0.161,0.034,0.318,0.081,0.479,0.11c0.254,0.051,0.508,0.079,0.766,0.119c0.109,0.019,0.219,0.034,0.33,0.051
	c0.26,0.037,0.518,0.091,0.778,0.119c0.028,0.003,0.054,0.009,0.082,0.014c0.051,0.006,0.099,0.005,0.152,0.009
	c0.479,0.05,0.96,0.068,1.442,0.087c0.267,0.012,0.536,0.045,0.803,0.047c0.036,0.002,0.073-0.002,0.109-0.002
	c0.363,0,0.724-0.031,1.087-0.046c0.4-0.017,0.806-0.02,1.198-0.059c0.06-0.003,0.118-0.019,0.178-0.025
	c0.009,0,0.019-0.003,0.031-0.003c0.045-0.006,0.091-0.003,0.136-0.008l130.921-14.548
	C504.077,161.319,513.273,149.823,511.856,137.059z"/>
</svg>